<?xml version="1.0" encoding="iso-8859-1"?>
<!-- Generator: Adobe Illustrator 18.0.0, SVG Export Plug-In . SVG Version: 6.00 Build 0)  -->
<!DOCTYPE svg PUBLIC "-//W3C//DTD SVG 1.1//EN" "http://www.w3.org/Graphics/SVG/1.1/DTD/svg11.dtd">
<svg version="1.1" id="Capa_1" xmlns="http://www.w3.org/2000/svg" xmlns:xlink="http://www.w3.org/1999/xlink" x="0px" y="0px"
	 viewBox="0 0 414.638 414.638" style="enable-background:new 0 0 414.638 414.638;" xml:space="preserve">
<g>
	
		<rect x="174.151" y="69.721" style="stroke:#000000;stroke-width:0;stroke-linecap:round;stroke-linejoin:round;" width="240.486" height="155.879"/>
	<path style="stroke:#000000;stroke-width:0;stroke-linecap:round;stroke-linejoin:round;" d="M156.969,125.149
		c0-6.352-5.148-11.5-11.5-11.5H27.275c-5.733,0-10.591,4.224-11.389,9.901L5.22,199.529c-0.074,0.529-0.111,1.063-0.111,1.599
		v39.355H0v45.721h24.634c-1.109,3.943-1.716,8.096-1.716,12.389c0,25.268,20.557,45.824,45.824,45.824
		c25.268,0,45.824-20.557,45.824-45.824c0-4.293-0.606-8.445-1.716-12.389h170.89c-1.201,4.092-1.857,8.414-1.857,12.889
		c0,25.268,20.557,45.824,45.824,45.824c25.268,0,45.825-20.557,45.825-45.824c0-4.475-0.656-8.797-1.858-12.889h42.963v-45.721
		H156.969V125.149z M68.742,320.917c-12.31,0-22.324-10.015-22.324-22.324c0-12.31,10.015-22.324,22.324-22.324
		c12.31,0,22.324,10.015,22.324,22.324C91.066,310.902,81.052,320.917,68.742,320.917z M133.969,159.862l-35.61,35.61H29.016
		l8.258-58.823h96.695V159.862z M327.707,276.768c12.311,0,22.325,10.015,22.325,22.324c0,12.31-10.015,22.324-22.325,22.324
		c-12.31,0-22.324-10.015-22.324-22.324C305.383,286.783,315.397,276.768,327.707,276.768z"/>
</g>
<g>
</g>
<g>
</g>
<g>
</g>
<g>
</g>
<g>
</g>
<g>
</g>
<g>
</g>
<g>
</g>
<g>
</g>
<g>
</g>
<g>
</g>
<g>
</g>
<g>
</g>
<g>
</g>
<g>
</g>
</svg>
